<svg width="295" height="98" viewBox="0 0 295 98" fill="none" xmlns="http://www.w3.org/2000/svg">
<rect x="127.5" y="3.24023" width="40" height="40" rx="20" fill="#B4D2E2"/>
<rect x="127.5" y="3.24023" width="40" height="40" rx="20" stroke="#E7F0F6" stroke-width="6"/>
<g clip-path="url(#clip0_235_2600)">
<path d="M150.833 26.5735L147.5 23.2401M147.5 23.2401L144.167 26.5735M147.5 23.2401V30.7401M154.492 28.5651C155.304 28.122 155.946 27.4209 156.317 26.5723C156.687 25.7238 156.763 24.7762 156.535 23.879C156.307 22.9819 155.786 22.1864 155.056 21.618C154.325 21.0496 153.426 20.7408 152.5 20.7401H151.45C151.198 19.7645 150.728 18.8588 150.075 18.091C149.422 17.3232 148.604 16.7133 147.682 16.3073C146.759 15.9013 145.757 15.7096 144.75 15.7467C143.743 15.7838 142.758 16.0487 141.868 16.5215C140.978 16.9943 140.207 17.6627 139.612 18.4765C139.018 19.2902 138.616 20.2281 138.436 21.2196C138.256 22.2112 138.303 23.2306 138.574 24.2012C138.845 25.1718 139.333 26.0684 140 26.8235" stroke="#0E6DA1" stroke-width="1.66667" stroke-linecap="round" stroke-linejoin="round"/>
</g>
<path d="M49.0753 63.3695H47.5241C47.4645 63.0381 47.3535 62.7464 47.1911 62.4945C47.0286 62.2426 46.8298 62.0288 46.5945 61.8532C46.3591 61.6775 46.0956 61.5449 45.804 61.4554C45.5156 61.3659 45.209 61.3212 44.8842 61.3212C44.2976 61.3212 43.7723 61.4687 43.3082 61.7637C42.8475 62.0587 42.483 62.4912 42.2145 63.0613C41.9493 63.6313 41.8168 64.3274 41.8168 65.1493C41.8168 65.9779 41.9493 66.6773 42.2145 67.2473C42.483 67.8174 42.8492 68.2483 43.3132 68.54C43.7772 68.8316 44.2992 68.9775 44.8793 68.9775C45.2008 68.9775 45.5057 68.9344 45.794 68.8482C46.0857 68.7587 46.3492 68.6278 46.5845 68.4554C46.8198 68.2831 47.0187 68.0726 47.1811 67.824C47.3468 67.5721 47.4612 67.2838 47.5241 66.959L49.0753 66.964C48.9924 67.4644 48.8317 67.9251 48.593 68.3461C48.3577 68.7637 48.0545 69.1249 47.6832 69.4299C47.3153 69.7315 46.8944 69.9651 46.4205 70.1309C45.9465 70.2966 45.4295 70.3794 44.8693 70.3794C43.9877 70.3794 43.2022 70.1706 42.5128 69.753C41.8234 69.3321 41.2798 68.7305 40.8821 67.9483C40.4877 67.1661 40.2905 66.2331 40.2905 65.1493C40.2905 64.0622 40.4893 63.1292 40.8871 62.3503C41.2848 61.5681 41.8284 60.9682 42.5178 60.5506C43.2071 60.1297 43.991 59.9192 44.8693 59.9192C45.4096 59.9192 45.9134 59.9971 46.3807 60.1529C46.8513 60.3053 47.2739 60.5307 47.6484 60.829C48.023 61.124 48.3329 61.4853 48.5781 61.9128C48.8234 62.3371 48.9891 62.8226 49.0753 63.3695ZM52.2807 60.0584V70.2402H50.7942V60.0584H52.2807ZM54.2805 70.2402V62.6039H55.767V70.2402H54.2805ZM55.0312 61.4256C54.7727 61.4256 54.5507 61.3394 54.3651 61.1671C54.1828 60.9914 54.0916 60.7826 54.0916 60.5407C54.0916 60.2954 54.1828 60.0866 54.3651 59.9142C54.5507 59.7386 54.7727 59.6507 55.0312 59.6507C55.2898 59.6507 55.5102 59.7386 55.6925 59.9142C55.8781 60.0866 55.9709 60.2954 55.9709 60.5407C55.9709 60.7826 55.8781 60.9914 55.6925 61.1671C55.5102 61.3394 55.2898 61.4256 55.0312 61.4256ZM60.9835 70.3944C60.2444 70.3944 59.608 70.227 59.0744 69.8922C58.5441 69.5542 58.1364 69.0885 57.8514 68.4952C57.5663 67.9019 57.4238 67.2225 57.4238 66.4569C57.4238 65.6813 57.5697 64.9969 57.8613 64.4036C58.153 63.807 58.564 63.3413 59.0943 63.0066C59.6246 62.6718 60.2493 62.5044 60.9686 62.5044C61.5486 62.5044 62.0656 62.6122 62.5197 62.8276C62.9738 63.0397 63.34 63.338 63.6184 63.7225C63.9002 64.1069 64.0675 64.556 64.1206 65.0698H62.6738C62.5943 64.7118 62.412 64.4036 62.127 64.1451C61.8452 63.8865 61.4674 63.7573 60.9934 63.7573C60.5791 63.7573 60.2162 63.8667 59.9047 64.0854C59.5964 64.3008 59.3561 64.6091 59.1838 65.0101C59.0114 65.4078 58.9252 65.8785 58.9252 66.4221C58.9252 66.9789 59.0098 67.4595 59.1788 67.8638C59.3478 68.2682 59.5865 68.5814 59.8947 68.8034C60.2063 69.0255 60.5725 69.1365 60.9934 69.1365C61.2752 69.1365 61.5304 69.0852 61.7591 68.9824C61.9911 68.8764 62.185 68.7256 62.3407 68.53C62.4998 68.3345 62.6109 68.0991 62.6738 67.824H64.1206C64.0675 68.3179 63.9068 68.7587 63.6383 69.1465C63.3699 69.5343 63.0102 69.8392 62.5595 70.0613C62.112 70.2833 61.5867 70.3944 60.9835 70.3944ZM67.0774 67.65L67.0675 65.8354H67.326L70.3686 62.6039H72.1484L68.6783 66.2828H68.4446L67.0774 67.65ZM65.7102 70.2402V60.0584H67.1967V70.2402H65.7102ZM70.5327 70.2402L67.7983 66.611L68.8224 65.5719L72.3572 70.2402H70.5327ZM80.7729 62.6039V63.7971H76.6017V62.6039H80.7729ZM77.7203 60.7743H79.2069V67.998C79.2069 68.2864 79.2499 68.5035 79.3361 68.6493C79.4223 68.7918 79.5333 68.8896 79.6692 68.9426C79.8084 68.9924 79.9592 69.0172 80.1216 69.0172C80.2409 69.0172 80.3453 69.0089 80.4348 68.9924C80.5243 68.9758 80.5939 68.9625 80.6436 68.9526L80.9121 70.1806C80.8259 70.2137 80.7033 70.2469 80.5442 70.28C80.3851 70.3165 80.1863 70.3364 79.9476 70.3397C79.5565 70.3463 79.1919 70.2767 78.8539 70.1309C78.5158 69.985 78.2424 69.7596 78.0336 69.4547C77.8248 69.1498 77.7203 68.767 77.7203 68.3063V60.7743ZM85.5518 70.3944C84.8359 70.3944 84.2112 70.2303 83.6776 69.9022C83.1439 69.574 82.7296 69.115 82.4347 68.525C82.1397 67.9351 81.9922 67.2457 81.9922 66.4569C81.9922 65.6647 82.1397 64.972 82.4347 64.3787C82.7296 63.7855 83.1439 63.3248 83.6776 62.9966C84.2112 62.6685 84.8359 62.5044 85.5518 62.5044C86.2678 62.5044 86.8925 62.6685 87.4261 62.9966C87.9598 63.3248 88.3741 63.7855 88.669 64.3787C88.964 64.972 89.1115 65.6647 89.1115 66.4569C89.1115 67.2457 88.964 67.9351 88.669 68.525C88.3741 69.115 87.9598 69.574 87.4261 69.9022C86.8925 70.2303 86.2678 70.3944 85.5518 70.3944ZM85.5568 69.1465C86.0208 69.1465 86.4053 69.0239 86.7102 68.7786C87.0152 68.5333 87.2405 68.2069 87.3864 67.7992C87.5355 67.3915 87.6101 66.9424 87.6101 66.4519C87.6101 65.9647 87.5355 65.5172 87.3864 65.1096C87.2405 64.6986 87.0152 64.3688 86.7102 64.1202C86.4053 63.8716 86.0208 63.7473 85.5568 63.7473C85.0895 63.7473 84.7017 63.8716 84.3935 64.1202C84.0885 64.3688 83.8615 64.6986 83.7124 65.1096C83.5665 65.5172 83.4936 65.9647 83.4936 66.4519C83.4936 66.9424 83.5665 67.3915 83.7124 67.7992C83.8615 68.2069 84.0885 68.5333 84.3935 68.7786C84.7017 69.0239 85.0895 69.1465 85.5568 69.1465ZM99.3132 67.0733V62.6039H100.805V70.2402H99.343V68.9178H99.2635C99.0878 69.3255 98.8061 69.6652 98.4183 69.937C98.0339 70.2054 97.5549 70.3397 96.9815 70.3397C96.491 70.3397 96.0568 70.2319 95.679 70.0165C95.3045 69.7978 95.0095 69.4746 94.794 69.0471C94.5819 68.6195 94.4759 68.0908 94.4759 67.4611V62.6039H95.9624V67.2821C95.9624 67.8025 96.1065 68.2168 96.3949 68.525C96.6832 68.8333 97.0578 68.9874 97.5185 68.9874C97.7969 68.9874 98.0736 68.9178 98.3487 68.7786C98.6271 68.6394 98.8575 68.4289 99.0398 68.1472C99.2254 67.8655 99.3165 67.5075 99.3132 67.0733ZM102.802 73.1039V62.6039H104.254V63.8418H104.378C104.464 63.6827 104.588 63.4988 104.751 63.29C104.913 63.0811 105.139 62.8989 105.427 62.7431C105.715 62.584 106.097 62.5044 106.57 62.5044C107.187 62.5044 107.737 62.6602 108.221 62.9718C108.705 63.2833 109.084 63.7324 109.36 64.3191C109.638 64.9057 109.777 65.6117 109.777 66.437C109.777 67.2623 109.64 67.9699 109.365 68.5598C109.089 69.1465 108.712 69.5989 108.231 69.9171C107.75 70.2319 107.202 70.3894 106.585 70.3894C106.121 70.3894 105.742 70.3115 105.447 70.1557C105.155 69.9999 104.927 69.8176 104.761 69.6088C104.595 69.4 104.468 69.2144 104.378 69.052H104.289V73.1039H102.802ZM104.259 66.4221C104.259 66.959 104.337 67.4296 104.492 67.834C104.648 68.2383 104.874 68.5549 105.169 68.7836C105.463 69.0089 105.825 69.1216 106.252 69.1216C106.696 69.1216 107.068 69.004 107.366 68.7686C107.664 68.53 107.89 68.2069 108.042 67.7992C108.198 67.3915 108.276 66.9325 108.276 66.4221C108.276 65.9183 108.2 65.4658 108.047 65.0648C107.898 64.6638 107.673 64.3472 107.371 64.1152C107.073 63.8832 106.7 63.7672 106.252 63.7672C105.821 63.7672 105.457 63.8783 105.159 64.1003C104.864 64.3224 104.64 64.6323 104.487 65.03C104.335 65.4277 104.259 65.8917 104.259 66.4221ZM112.929 60.0584V70.2402H111.443V60.0584H112.929ZM118.146 70.3944C117.43 70.3944 116.805 70.2303 116.271 69.9022C115.738 69.574 115.323 69.115 115.028 68.525C114.733 67.9351 114.586 67.2457 114.586 66.4569C114.586 65.6647 114.733 64.972 115.028 64.3787C115.323 63.7855 115.738 63.3248 116.271 62.9966C116.805 62.6685 117.43 62.5044 118.146 62.5044C118.862 62.5044 119.486 62.6685 120.02 62.9966C120.554 63.3248 120.968 63.7855 121.263 64.3787C121.558 64.972 121.705 65.6647 121.705 66.4569C121.705 67.2457 121.558 67.9351 121.263 68.525C120.968 69.115 120.554 69.574 120.02 69.9022C119.486 70.2303 118.862 70.3944 118.146 70.3944ZM118.151 69.1465C118.615 69.1465 118.999 69.0239 119.304 68.7786C119.609 68.5333 119.834 68.2069 119.98 67.7992C120.129 67.3915 120.204 66.9424 120.204 66.4519C120.204 65.9647 120.129 65.5172 119.98 65.1096C119.834 64.6986 119.609 64.3688 119.304 64.1202C118.999 63.8716 118.615 63.7473 118.151 63.7473C117.683 63.7473 117.295 63.8716 116.987 64.1202C116.682 64.3688 116.455 64.6986 116.306 65.1096C116.16 65.5172 116.087 65.9647 116.087 66.4519C116.087 66.9424 116.16 67.3915 116.306 67.7992C116.455 68.2069 116.682 68.5333 116.987 68.7786C117.295 69.0239 117.683 69.1465 118.151 69.1465ZM125.587 70.4093C125.103 70.4093 124.665 70.3198 124.274 70.1408C123.883 69.9585 123.573 69.695 123.345 69.3503C123.119 69.0056 123.007 68.583 123.007 68.0826C123.007 67.6517 123.089 67.2971 123.255 67.0186C123.421 66.7402 123.645 66.5198 123.926 66.3574C124.208 66.195 124.523 66.0724 124.871 65.9895C125.219 65.9067 125.574 65.8437 125.935 65.8006C126.392 65.7476 126.763 65.7045 127.048 65.6713C127.334 65.6349 127.541 65.5769 127.67 65.4973C127.799 65.4178 127.864 65.2885 127.864 65.1096V65.0748C127.864 64.6406 127.741 64.3042 127.496 64.0655C127.254 63.8269 126.893 63.7076 126.412 63.7076C125.912 63.7076 125.517 63.8186 125.229 64.0407C124.944 64.2594 124.747 64.503 124.637 64.7715L123.24 64.4533C123.406 63.9893 123.648 63.6148 123.966 63.3297C124.288 63.0414 124.657 62.8326 125.075 62.7033C125.492 62.5707 125.932 62.5044 126.392 62.5044C126.697 62.5044 127.02 62.5409 127.362 62.6138C127.706 62.6834 128.028 62.8127 128.326 63.0016C128.628 63.1905 128.875 63.4606 129.067 63.812C129.259 64.16 129.355 64.6124 129.355 65.1692V70.2402H127.904V69.1962H127.844C127.748 69.3884 127.604 69.5774 127.411 69.763C127.219 69.9486 126.972 70.1027 126.671 70.2253C126.369 70.348 126.008 70.4093 125.587 70.4093ZM125.91 69.2161C126.321 69.2161 126.672 69.1349 126.964 68.9725C127.259 68.8101 127.483 68.598 127.635 68.3361C127.791 68.071 127.869 67.7876 127.869 67.486V66.5016C127.816 66.5546 127.713 66.6043 127.561 66.6507C127.411 66.6938 127.241 66.7319 127.048 66.7651C126.856 66.7949 126.669 66.8231 126.487 66.8496C126.304 66.8728 126.152 66.8927 126.029 66.9093C125.741 66.9457 125.477 67.007 125.239 67.0932C125.003 67.1794 124.815 67.3037 124.672 67.4661C124.533 67.6252 124.463 67.8373 124.463 68.1025C124.463 68.4703 124.599 68.7488 124.871 68.9377C125.143 69.1233 125.489 69.2161 125.91 69.2161ZM134.194 70.3894C133.577 70.3894 133.027 70.2319 132.543 69.9171C132.063 69.5989 131.685 69.1465 131.41 68.5598C131.138 67.9699 131.002 67.2623 131.002 66.437C131.002 65.6117 131.14 64.9057 131.415 64.3191C131.693 63.7324 132.074 63.2833 132.558 62.9718C133.042 62.6602 133.591 62.5044 134.204 62.5044C134.678 62.5044 135.059 62.584 135.347 62.7431C135.639 62.8989 135.864 63.0811 136.023 63.29C136.186 63.4988 136.312 63.6827 136.401 63.8418H136.491V60.0584H137.977V70.2402H136.526V69.052H136.401C136.312 69.2144 136.183 69.4 136.013 69.6088C135.848 69.8176 135.619 69.9999 135.327 70.1557C135.036 70.3115 134.658 70.3894 134.194 70.3894ZM134.522 69.1216C134.95 69.1216 135.311 69.0089 135.606 68.7836C135.904 68.5549 136.129 68.2383 136.282 67.834C136.438 67.4296 136.516 66.959 136.516 66.4221C136.516 65.8917 136.439 65.4277 136.287 65.03C136.134 64.6323 135.911 64.3224 135.616 64.1003C135.321 63.8783 134.956 63.7672 134.522 63.7672C134.075 63.7672 133.702 63.8832 133.403 64.1152C133.105 64.3472 132.88 64.6638 132.727 65.0648C132.578 65.4658 132.504 65.9183 132.504 66.4221C132.504 66.9325 132.58 67.3915 132.732 67.7992C132.885 68.2069 133.11 68.53 133.408 68.7686C133.71 69.004 134.081 69.1216 134.522 69.1216Z" fill="#0E6DA1"/>
<path d="M147.676 70.3993C146.987 70.3993 146.382 70.2353 145.862 69.9071C145.344 69.579 144.94 69.12 144.648 68.53C144.36 67.94 144.216 67.2507 144.216 66.4618C144.216 65.6664 144.36 64.972 144.648 64.3787C144.94 63.7855 145.344 63.3248 145.862 62.9966C146.382 62.6685 146.987 62.5044 147.676 62.5044C148.366 62.5044 148.969 62.6685 149.486 62.9966C150.006 63.3248 150.411 63.7855 150.699 64.3787C150.991 64.972 151.136 65.6664 151.136 66.4618C151.136 67.2507 150.991 67.94 150.699 68.53C150.411 69.12 150.006 69.579 149.486 69.9071C148.969 70.2353 148.366 70.3993 147.676 70.3993ZM147.676 69.3453C148.2 69.3453 148.631 69.2111 148.969 68.9426C149.307 68.6742 149.557 68.3212 149.719 67.8837C149.882 67.4462 149.963 66.9722 149.963 66.4618C149.963 65.9514 149.882 65.4758 149.719 65.035C149.557 64.5942 149.307 64.2379 148.969 63.9661C148.631 63.6943 148.2 63.5584 147.676 63.5584C147.152 63.5584 146.722 63.6943 146.384 63.9661C146.045 64.2379 145.795 64.5942 145.633 65.035C145.47 65.4758 145.389 65.9514 145.389 66.4618C145.389 66.9722 145.47 67.4462 145.633 67.8837C145.795 68.3212 146.045 68.6742 146.384 68.9426C146.722 69.2111 147.152 69.3453 147.676 69.3453ZM152.927 70.2402V62.6039H154.061V63.7573H154.14C154.28 63.3794 154.532 63.0729 154.896 62.8375C155.261 62.6022 155.672 62.4846 156.129 62.4846C156.215 62.4846 156.323 62.4862 156.452 62.4895C156.581 62.4928 156.679 62.4978 156.746 62.5044V63.6976C156.706 63.6877 156.615 63.6728 156.472 63.6529C156.333 63.6297 156.185 63.6181 156.03 63.6181C155.658 63.6181 155.327 63.696 155.035 63.8517C154.747 64.0042 154.518 64.2163 154.349 64.4881C154.184 64.7566 154.101 65.0632 154.101 65.4078V70.2402H152.927ZM164.957 70.3993C164.321 70.3993 163.759 70.2386 163.272 69.9171C162.785 69.5923 162.404 69.1349 162.129 68.5449C161.853 67.9516 161.716 67.2507 161.716 66.4419C161.716 65.6399 161.853 64.9438 162.129 64.3539C162.404 63.7639 162.786 63.3082 163.277 62.9867C163.768 62.6652 164.334 62.5044 164.977 62.5044C165.474 62.5044 165.867 62.5873 166.156 62.753C166.447 62.9154 166.669 63.101 166.822 63.3098C166.978 63.5153 167.098 63.6844 167.185 63.8169H167.284V60.0584H168.457V70.2402H167.324V69.0669H167.185C167.098 69.2061 166.976 69.3818 166.817 69.5939C166.658 69.8027 166.431 69.99 166.136 70.1557C165.841 70.3181 165.448 70.3993 164.957 70.3993ZM165.116 69.3453C165.587 69.3453 165.985 69.2227 166.31 68.9775C166.634 68.7289 166.881 68.3858 167.05 67.9483C167.219 67.5075 167.304 66.9988 167.304 66.4221C167.304 65.852 167.221 65.3532 167.055 64.9256C166.89 64.4947 166.644 64.16 166.32 63.9213C165.995 63.6794 165.594 63.5584 165.116 63.5584C164.619 63.5584 164.205 63.686 163.874 63.9412C163.545 64.1931 163.299 64.5362 163.133 64.9703C162.97 65.4012 162.889 65.8851 162.889 66.4221C162.889 66.9656 162.972 67.4595 163.138 67.9036C163.307 68.3444 163.555 68.6957 163.884 68.9576C164.215 69.2161 164.626 69.3453 165.116 69.3453ZM170.769 70.2402V62.6039H171.903V63.7573H171.982C172.121 63.3794 172.373 63.0729 172.738 62.8375C173.103 62.6022 173.513 62.4846 173.971 62.4846C174.057 62.4846 174.165 62.4862 174.294 62.4895C174.423 62.4928 174.521 62.4978 174.587 62.5044V63.6976C174.548 63.6877 174.456 63.6728 174.314 63.6529C174.175 63.6297 174.027 63.6181 173.871 63.6181C173.5 63.6181 173.169 63.696 172.877 63.8517C172.589 64.0042 172.36 64.2163 172.191 64.4881C172.025 64.7566 171.942 65.0632 171.942 65.4078V70.2402H170.769ZM178.225 70.4192C177.741 70.4192 177.302 70.3281 176.908 70.1458C176.513 69.9602 176.2 69.6934 175.968 69.3453C175.736 68.994 175.62 68.5698 175.62 68.0726C175.62 67.6351 175.706 67.2805 175.879 67.0087C176.051 66.7336 176.281 66.5182 176.57 66.3624C176.858 66.2066 177.176 66.0906 177.524 66.0144C177.876 65.9348 178.229 65.8719 178.583 65.8255C179.047 65.7658 179.423 65.7211 179.712 65.6912C180.003 65.6581 180.216 65.6034 180.348 65.5272C180.484 65.4509 180.552 65.3184 180.552 65.1294V65.0897C180.552 64.5991 180.418 64.218 180.149 63.9462C179.884 63.6744 179.481 63.5385 178.941 63.5385C178.381 63.5385 177.942 63.6612 177.624 63.9064C177.306 64.1517 177.082 64.4135 176.953 64.6919L175.839 64.2942C176.038 63.8302 176.303 63.4689 176.634 63.2104C176.969 62.9486 177.334 62.7663 177.728 62.6635C178.126 62.5575 178.517 62.5044 178.901 62.5044C179.147 62.5044 179.428 62.5343 179.747 62.5939C180.068 62.6503 180.378 62.7679 180.676 62.9469C180.978 63.1259 181.228 63.396 181.427 63.7573C181.626 64.1185 181.725 64.6025 181.725 65.209V70.2402H180.552V69.2061H180.492C180.413 69.3719 180.28 69.5492 180.095 69.7381C179.909 69.927 179.662 70.0878 179.354 70.2203C179.046 70.3529 178.669 70.4192 178.225 70.4192ZM178.404 69.3652C178.868 69.3652 179.259 69.2741 179.578 69.0918C179.899 68.9095 180.141 68.6742 180.303 68.3858C180.469 68.0975 180.552 67.7942 180.552 67.476V66.4022C180.502 66.4618 180.393 66.5165 180.224 66.5662C180.058 66.6126 179.866 66.6541 179.647 66.6905C179.432 66.7237 179.221 66.7535 179.016 66.78C178.814 66.8032 178.65 66.8231 178.524 66.8397C178.219 66.8794 177.934 66.9441 177.669 67.0336C177.407 67.1197 177.195 67.2507 177.032 67.4263C176.873 67.5987 176.794 67.834 176.794 68.1323C176.794 68.54 176.944 68.8482 177.246 69.057C177.551 69.2625 177.937 69.3652 178.404 69.3652ZM186.949 73.263C186.382 73.263 185.895 73.19 185.488 73.0442C185.08 72.9017 184.74 72.7128 184.468 72.4775C184.2 72.2454 183.986 71.9969 183.827 71.7317L184.762 71.0755C184.868 71.2147 185.002 71.3738 185.164 71.5527C185.327 71.735 185.549 71.8925 185.831 72.025C186.116 72.1609 186.489 72.2289 186.949 72.2289C187.566 72.2289 188.074 72.0797 188.475 71.7814C188.877 71.4831 189.077 71.0158 189.077 70.3794V68.8283H188.978C188.891 68.9675 188.769 69.1399 188.61 69.3453C188.454 69.5475 188.229 69.7282 187.934 69.8873C187.642 70.043 187.248 70.1209 186.75 70.1209C186.134 70.1209 185.58 69.9751 185.09 69.6834C184.603 69.3917 184.217 68.9675 183.931 68.4107C183.65 67.8539 183.509 67.1777 183.509 66.3823C183.509 65.6001 183.646 64.919 183.922 64.339C184.197 63.7556 184.579 63.3049 185.07 62.9867C185.56 62.6652 186.127 62.5044 186.77 62.5044C187.267 62.5044 187.662 62.5873 187.953 62.753C188.248 62.9154 188.474 63.101 188.63 63.3098C188.789 63.5153 188.911 63.6844 188.998 63.8169H189.117V62.6039H190.25V70.459C190.25 71.1152 190.101 71.6489 189.803 72.0598C189.508 72.4741 189.11 72.7774 188.61 72.9696C188.113 73.1652 187.559 73.263 186.949 73.263ZM186.909 69.0669C187.38 69.0669 187.778 68.9592 188.103 68.7438C188.427 68.5283 188.674 68.2185 188.843 67.8141C189.012 67.4097 189.097 66.9258 189.097 66.3624C189.097 65.8122 189.014 65.3266 188.848 64.9057C188.683 64.4848 188.437 64.155 188.113 63.9164C187.788 63.6777 187.387 63.5584 186.909 63.5584C186.412 63.5584 185.998 63.6844 185.667 63.9363C185.338 64.1882 185.092 64.5262 184.926 64.9505C184.763 65.3747 184.682 65.8453 184.682 66.3624C184.682 66.8927 184.765 67.3617 184.931 67.7694C185.1 68.1737 185.348 68.4919 185.676 68.7239C186.008 68.9526 186.419 69.0669 186.909 69.0669ZM198.583 70.4192C198.099 70.4192 197.66 70.3281 197.265 70.1458C196.871 69.9602 196.558 69.6934 196.326 69.3453C196.094 68.994 195.978 68.5698 195.978 68.0726C195.978 67.6351 196.064 67.2805 196.236 67.0087C196.408 66.7336 196.639 66.5182 196.927 66.3624C197.216 66.2066 197.534 66.0906 197.882 66.0144C198.233 65.9348 198.586 65.8719 198.941 65.8255C199.405 65.7658 199.781 65.7211 200.069 65.6912C200.361 65.6581 200.573 65.6034 200.706 65.5272C200.842 65.4509 200.909 65.3184 200.909 65.1294V65.0897C200.909 64.5991 200.775 64.218 200.507 63.9462C200.242 63.6744 199.839 63.5385 199.299 63.5385C198.739 63.5385 198.299 63.6612 197.981 63.9064C197.663 64.1517 197.439 64.4135 197.31 64.6919L196.196 64.2942C196.395 63.8302 196.66 63.4689 196.992 63.2104C197.327 62.9486 197.691 62.7663 198.086 62.6635C198.483 62.5575 198.874 62.5044 199.259 62.5044C199.504 62.5044 199.786 62.5343 200.104 62.5939C200.426 62.6503 200.735 62.7679 201.034 62.9469C201.335 63.1259 201.586 63.396 201.784 63.7573C201.983 64.1185 202.083 64.6025 202.083 65.209V70.2402H200.909V69.2061H200.85C200.77 69.3719 200.638 69.5492 200.452 69.7381C200.266 69.927 200.02 70.0878 199.711 70.2203C199.403 70.3529 199.027 70.4192 198.583 70.4192ZM198.762 69.3652C199.226 69.3652 199.617 69.2741 199.935 69.0918C200.257 68.9095 200.498 68.6742 200.661 68.3858C200.827 68.0975 200.909 67.7942 200.909 67.476V66.4022C200.86 66.4618 200.75 66.5165 200.581 66.5662C200.416 66.6126 200.223 66.6541 200.005 66.6905C199.789 66.7237 199.579 66.7535 199.373 66.78C199.171 66.8032 199.007 66.8231 198.881 66.8397C198.576 66.8794 198.291 66.9441 198.026 67.0336C197.764 67.1197 197.552 67.2507 197.39 67.4263C197.23 67.5987 197.151 67.834 197.151 68.1323C197.151 68.54 197.302 68.8482 197.603 69.057C197.908 69.2625 198.294 69.3652 198.762 69.3652ZM205.398 65.6465V70.2402H204.224V62.6039H205.358V63.7971H205.457C205.636 63.4093 205.908 63.0977 206.273 62.8624C206.637 62.6238 207.108 62.5044 207.684 62.5044C208.202 62.5044 208.654 62.6105 209.042 62.8226C209.43 63.0314 209.731 63.3496 209.947 63.7772C210.162 64.2014 210.27 64.7383 210.27 65.388V70.2402H209.096V65.4675C209.096 64.8676 208.941 64.4003 208.629 64.0655C208.318 63.7274 207.89 63.5584 207.346 63.5584C206.972 63.5584 206.637 63.6396 206.342 63.802C206.05 63.9644 205.82 64.2014 205.651 64.513C205.482 64.8245 205.398 65.2024 205.398 65.6465ZM215.297 70.3993C214.661 70.3993 214.099 70.2386 213.612 69.9171C213.125 69.5923 212.743 69.1349 212.468 68.5449C212.193 67.9516 212.056 67.2507 212.056 66.4419C212.056 65.6399 212.193 64.9438 212.468 64.3539C212.743 63.7639 213.126 63.3082 213.617 62.9867C214.107 62.6652 214.674 62.5044 215.317 62.5044C215.814 62.5044 216.207 62.5873 216.495 62.753C216.787 62.9154 217.009 63.101 217.162 63.3098C217.317 63.5153 217.438 63.6844 217.525 63.8169H217.624V60.0584H218.797V70.2402H217.664V69.0669H217.525C217.438 69.2061 217.316 69.3818 217.157 69.5939C216.998 69.8027 216.77 69.99 216.475 70.1557C216.181 70.3181 215.788 70.3993 215.297 70.3993ZM215.456 69.3453C215.927 69.3453 216.325 69.2227 216.65 68.9775C216.974 68.7289 217.221 68.3858 217.39 67.9483C217.559 67.5075 217.644 66.9988 217.644 66.4221C217.644 65.852 217.561 65.3532 217.395 64.9256C217.23 64.4947 216.984 64.16 216.659 63.9213C216.335 63.6794 215.934 63.5584 215.456 63.5584C214.959 63.5584 214.545 63.686 214.213 63.9412C213.885 64.1931 213.638 64.5362 213.473 64.9703C213.31 65.4012 213.229 65.8851 213.229 66.4221C213.229 66.9656 213.312 67.4595 213.478 67.9036C213.647 68.3444 213.895 68.6957 214.223 68.9576C214.555 69.2161 214.966 69.3453 215.456 69.3453ZM227.93 70.3993C227.294 70.3993 226.732 70.2386 226.245 69.9171C225.757 69.5923 225.376 69.1349 225.101 68.5449C224.826 67.9516 224.689 67.2507 224.689 66.4419C224.689 65.6399 224.826 64.9438 225.101 64.3539C225.376 63.7639 225.759 63.3082 226.25 62.9867C226.74 62.6652 227.307 62.5044 227.95 62.5044C228.447 62.5044 228.84 62.5873 229.128 62.753C229.42 62.9154 229.642 63.101 229.794 63.3098C229.95 63.5153 230.071 63.6844 230.157 63.8169H230.257V60.0584H231.43V70.2402H230.297V69.0669H230.157C230.071 69.2061 229.949 69.3818 229.789 69.5939C229.63 69.8027 229.403 69.99 229.108 70.1557C228.813 70.3181 228.421 70.3993 227.93 70.3993ZM228.089 69.3453C228.56 69.3453 228.958 69.2227 229.282 68.9775C229.607 68.7289 229.854 68.3858 230.023 67.9483C230.192 67.5075 230.277 66.9988 230.277 66.4221C230.277 65.852 230.194 65.3532 230.028 64.9256C229.862 64.4947 229.617 64.16 229.292 63.9213C228.967 63.6794 228.566 63.5584 228.089 63.5584C227.592 63.5584 227.178 63.686 226.846 63.9412C226.518 64.1931 226.271 64.5362 226.105 64.9703C225.943 65.4012 225.862 65.8851 225.862 66.4221C225.862 66.9656 225.945 67.4595 226.11 67.9036C226.279 68.3444 226.528 68.6957 226.856 68.9576C227.188 69.2161 227.599 69.3453 228.089 69.3453ZM233.742 70.2402V62.6039H234.875V63.7573H234.955C235.094 63.3794 235.346 63.0729 235.711 62.8375C236.075 62.6022 236.486 62.4846 236.944 62.4846C237.03 62.4846 237.137 62.4862 237.267 62.4895C237.396 62.4928 237.494 62.4978 237.56 62.5044V63.6976C237.52 63.6877 237.429 63.6728 237.287 63.6529C237.147 63.6297 237 63.6181 236.844 63.6181C236.473 63.6181 236.141 63.696 235.85 63.8517C235.561 64.0042 235.333 64.2163 235.164 64.4881C234.998 64.7566 234.915 65.0632 234.915 65.4078V70.2402H233.742ZM241.821 70.3993C241.131 70.3993 240.526 70.2353 240.006 69.9071C239.489 69.579 239.085 69.12 238.793 68.53C238.505 67.94 238.36 67.2507 238.36 66.4618C238.36 65.6664 238.505 64.972 238.793 64.3787C239.085 63.7855 239.489 63.3248 240.006 62.9966C240.526 62.6685 241.131 62.5044 241.821 62.5044C242.51 62.5044 243.113 62.6685 243.63 62.9966C244.151 63.3248 244.555 63.7855 244.843 64.3787C245.135 64.972 245.281 65.6664 245.281 66.4618C245.281 67.2507 245.135 67.94 244.843 68.53C244.555 69.12 244.151 69.579 243.63 69.9071C243.113 70.2353 242.51 70.3993 241.821 70.3993ZM241.821 69.3453C242.344 69.3453 242.775 69.2111 243.113 68.9426C243.451 68.6742 243.702 68.3212 243.864 67.8837C244.026 67.4462 244.108 66.9722 244.108 66.4618C244.108 65.9514 244.026 65.4758 243.864 65.035C243.702 64.5942 243.451 64.2379 243.113 63.9661C242.775 63.6943 242.344 63.5584 241.821 63.5584C241.297 63.5584 240.866 63.6943 240.528 63.9661C240.19 64.2379 239.94 64.5942 239.777 65.035C239.615 65.4758 239.534 65.9514 239.534 66.4618C239.534 66.9722 239.615 67.4462 239.777 67.8837C239.94 68.3212 240.19 68.6742 240.528 68.9426C240.866 69.2111 241.297 69.3453 241.821 69.3453ZM247.072 73.1039V62.6039H248.205V63.8169H248.345C248.431 63.6844 248.55 63.5153 248.703 63.3098C248.858 63.101 249.08 62.9154 249.369 62.753C249.66 62.5873 250.055 62.5044 250.552 62.5044C251.195 62.5044 251.762 62.6652 252.252 62.9867C252.743 63.3082 253.126 63.7639 253.401 64.3539C253.676 64.9438 253.813 65.6399 253.813 66.4419C253.813 67.2507 253.676 67.9516 253.401 68.5449C253.126 69.1349 252.744 69.5923 252.257 69.9171C251.77 70.2386 251.208 70.3993 250.572 70.3993C250.081 70.3993 249.689 70.3181 249.394 70.1557C249.099 69.99 248.872 69.8027 248.713 69.5939C248.553 69.3818 248.431 69.2061 248.345 69.0669H248.245V73.1039H247.072ZM248.225 66.4221C248.225 66.9988 248.31 67.5075 248.479 67.9483C248.648 68.3858 248.895 68.7289 249.22 68.9775C249.544 69.2227 249.942 69.3453 250.413 69.3453C250.903 69.3453 251.313 69.2161 251.641 68.9576C251.972 68.6957 252.221 68.3444 252.387 67.9036C252.556 67.4595 252.64 66.9656 252.64 66.4221C252.64 65.8851 252.557 65.4012 252.392 64.9703C252.229 64.5362 251.982 64.1931 251.651 63.9412C251.323 63.686 250.91 63.5584 250.413 63.5584C249.936 63.5584 249.535 63.6794 249.21 63.9213C248.885 64.16 248.64 64.4947 248.474 64.9256C248.308 65.3532 248.225 65.852 248.225 66.4221Z" fill="#667085"/>
<path d="M36.9155 85.6948C36.8643 85.263 36.657 84.9277 36.2933 84.6891C35.9297 84.4505 35.4837 84.3311 34.9553 84.3311C34.5689 84.3311 34.2308 84.3936 33.9411 84.5186C33.6541 84.6436 33.4297 84.8155 33.2678 85.0343C33.1087 85.253 33.0291 85.5016 33.0291 85.78C33.0291 86.013 33.0845 86.2132 33.1953 86.3809C33.3089 86.5456 33.4538 86.6834 33.63 86.7942C33.8061 86.9022 33.9908 86.9917 34.1839 87.0627C34.3771 87.1309 34.5547 87.1863 34.7166 87.2289L35.603 87.4675C35.8303 87.5272 36.0831 87.6096 36.3615 87.7147C36.6428 87.8198 36.9112 87.9632 37.1669 88.1451C37.4254 88.324 37.6385 88.5542 37.8061 88.8354C37.9737 89.1167 38.0575 89.4618 38.0575 89.8709C38.0575 90.3425 37.9339 90.7686 37.6868 91.1493C37.4425 91.53 37.0845 91.8326 36.6129 92.057C36.1442 92.2814 35.5746 92.3936 34.9041 92.3936C34.2791 92.3936 33.7379 92.2928 33.2805 92.0911C32.826 91.8894 32.468 91.6081 32.2067 91.2473C31.9482 90.8865 31.8018 90.4675 31.7678 89.9902H32.8587C32.8871 90.3198 32.9979 90.5925 33.1911 90.8084C33.3871 91.0215 33.6342 91.1806 33.9325 91.2857C34.2337 91.388 34.5575 91.4391 34.9041 91.4391C35.3075 91.4391 35.6697 91.3738 35.9908 91.2431C36.3118 91.1096 36.5661 90.9249 36.7536 90.6891C36.9411 90.4505 37.0348 90.1721 37.0348 89.8539C37.0348 89.5641 36.9538 89.3283 36.7919 89.1465C36.63 88.9647 36.4169 88.8169 36.1527 88.7033C35.8885 88.5897 35.603 88.4902 35.2962 88.405L34.2223 88.0982C33.5405 87.9022 33.0007 87.6223 32.603 87.2587C32.2053 86.8951 32.0064 86.4192 32.0064 85.8311C32.0064 85.3425 32.1385 84.9164 32.4027 84.5527C32.6697 84.1863 33.0277 83.9022 33.4766 83.7005C33.9283 83.4959 34.4325 83.3936 34.9893 83.3936C35.5518 83.3936 36.0518 83.4945 36.4893 83.6962C36.9268 83.8951 37.2734 84.1678 37.5291 84.5144C37.7876 84.861 37.924 85.2544 37.9382 85.6948H36.9155ZM40.1531 83.513L42.744 90.8596H42.8462L45.4371 83.513H46.5451L43.3406 92.2402H42.2496L39.0451 83.513H40.1531ZM53.4602 86.2402C53.3665 85.9533 53.2429 85.6962 53.0895 85.4689C52.9389 85.2388 52.7585 85.0428 52.5483 84.8809C52.3409 84.7189 52.1051 84.5953 51.8409 84.5101C51.5767 84.4249 51.2869 84.3823 50.9716 84.3823C50.4545 84.3823 49.9844 84.5158 49.5611 84.7828C49.1378 85.0499 48.8011 85.4434 48.5511 85.9632C48.3011 86.4831 48.1761 87.1209 48.1761 87.8766C48.1761 88.6323 48.3026 89.2701 48.5554 89.79C48.8082 90.3098 49.1506 90.7033 49.5824 90.9703C50.0142 91.2374 50.5 91.3709 51.0398 91.3709C51.5398 91.3709 51.9801 91.2644 52.3608 91.0513C52.7443 90.8354 53.0426 90.5314 53.2557 90.1394C53.4716 89.7445 53.5795 89.28 53.5795 88.7459L53.9034 88.8141H51.2784V87.8766H54.6023V88.8141C54.6023 89.5328 54.4489 90.1578 54.142 90.6891C53.8381 91.2203 53.4176 91.6323 52.8807 91.9249C52.3466 92.2147 51.733 92.3596 51.0398 92.3596C50.267 92.3596 49.5881 92.1777 49.0028 91.8141C48.4205 91.4505 47.9659 90.9334 47.6392 90.263C47.3153 89.5925 47.1534 88.7971 47.1534 87.8766C47.1534 87.1863 47.2457 86.5655 47.4304 86.0144C47.6179 85.4604 47.8821 84.9888 48.223 84.5996C48.5639 84.2104 48.9673 83.9121 49.4332 83.7047C49.8991 83.4973 50.4119 83.3936 50.9716 83.3936C51.4318 83.3936 51.8608 83.4632 52.2585 83.6024C52.6591 83.7388 53.0156 83.9334 53.3281 84.1863C53.6435 84.4363 53.9063 84.736 54.1165 85.0854C54.3267 85.432 54.4716 85.8169 54.5511 86.2402H53.4602ZM57.7759 91.0471L57.7077 91.5073C57.6594 91.8311 57.5856 92.1777 57.4862 92.5471C57.3896 92.9164 57.2887 93.2644 57.1836 93.5911C57.0785 93.9178 56.9918 94.1777 56.9237 94.3709H56.1566C56.1935 94.1891 56.2418 93.949 56.3015 93.6507C56.3612 93.3525 56.4208 93.0186 56.4805 92.6493C56.543 92.2828 56.5941 91.9078 56.6339 91.5243L56.685 91.0471H57.7759ZM63.1506 92.2402V83.513H66.0994C66.7841 83.513 67.3438 83.6365 67.7784 83.8837C68.2159 84.128 68.5398 84.459 68.75 84.8766C68.9602 85.2942 69.0653 85.7601 69.0653 86.2743C69.0653 86.7885 68.9602 87.2559 68.75 87.6763C68.5426 88.0968 68.2216 88.432 67.7869 88.682C67.3523 88.9292 66.7955 89.0527 66.1165 89.0527H64.0028V88.1152H66.0824C66.5511 88.1152 66.9276 88.0343 67.2116 87.8723C67.4957 87.7104 67.7017 87.4917 67.8295 87.2161C67.9602 86.9377 68.0256 86.6238 68.0256 86.2743C68.0256 85.9249 67.9602 85.6124 67.8295 85.3368C67.7017 85.0613 67.4943 84.8453 67.2074 84.6891C66.9205 84.53 66.5398 84.4505 66.0653 84.4505H64.2074V92.2402H63.1506ZM77.6882 83.513V92.2402H76.6655L71.9098 85.388H71.8246V92.2402H70.7678V83.513H71.7905L76.5632 90.3823H76.6484V83.513H77.6882ZM85.7688 86.2402C85.6751 85.9533 85.5515 85.6962 85.3981 85.4689C85.2475 85.2388 85.0671 85.0428 84.8569 84.8809C84.6495 84.7189 84.4137 84.5953 84.1495 84.5101C83.8853 84.4249 83.5955 84.3823 83.2802 84.3823C82.7631 84.3823 82.293 84.5158 81.8697 84.7828C81.4464 85.0499 81.1097 85.4434 80.8597 85.9632C80.6097 86.4831 80.4847 87.1209 80.4847 87.8766C80.4847 88.6323 80.6112 89.2701 80.864 89.79C81.1168 90.3098 81.4592 90.7033 81.891 90.9703C82.3228 91.2374 82.8086 91.3709 83.3484 91.3709C83.8484 91.3709 84.2887 91.2644 84.6694 91.0513C85.0529 90.8354 85.3512 90.5314 85.5643 90.1394C85.7802 89.7445 85.8881 89.28 85.8881 88.7459L86.212 88.8141H83.587V87.8766H86.9109V88.8141C86.9109 89.5328 86.7575 90.1578 86.4506 90.6891C86.1467 91.2203 85.7262 91.6323 85.1893 91.9249C84.6552 92.2147 84.0415 92.3596 83.3484 92.3596C82.5756 92.3596 81.8967 92.1777 81.3114 91.8141C80.729 91.4505 80.2745 90.9334 79.9478 90.263C79.6239 89.5925 79.462 88.7971 79.462 87.8766C79.462 87.1863 79.5543 86.5655 79.739 86.0144C79.9265 85.4604 80.1907 84.9888 80.5316 84.5996C80.8725 84.2104 81.2759 83.9121 81.7418 83.7047C82.2077 83.4973 82.7205 83.3936 83.2802 83.3936C83.7404 83.3936 84.1694 83.4632 84.5671 83.6024C84.9677 83.7388 85.3242 83.9334 85.6367 84.1863C85.9521 84.4363 86.2148 84.736 86.4251 85.0854C86.6353 85.432 86.7802 85.8169 86.8597 86.2402H85.7688ZM90.0845 91.0471L90.0163 91.5073C89.968 91.8311 89.8942 92.1777 89.7947 92.5471C89.6982 92.9164 89.5973 93.2644 89.4922 93.5911C89.3871 93.9178 89.3004 94.1777 89.2322 94.3709H88.4652C88.5021 94.1891 88.5504 93.949 88.6101 93.6507C88.6697 93.3525 88.7294 93.0186 88.7891 92.6493C88.8516 92.2828 88.9027 91.9078 88.9425 91.5243L88.9936 91.0471H90.0845ZM98.8001 83.513H99.8569V89.7516C99.8569 90.3084 99.7546 90.7814 99.5501 91.1706C99.3455 91.5598 99.0572 91.8553 98.685 92.057C98.3129 92.2587 97.8739 92.3596 97.3683 92.3596C96.891 92.3596 96.4663 92.2729 96.0941 92.0996C95.7219 91.9235 95.4293 91.6735 95.2163 91.3496C95.0032 91.0257 94.8967 90.6408 94.8967 90.1948H95.9364C95.9364 90.4419 95.9975 90.6578 96.1197 90.8425C96.2447 91.0243 96.4151 91.1664 96.631 91.2686C96.8469 91.3709 97.0927 91.4221 97.3683 91.4221C97.6722 91.4221 97.9308 91.3581 98.1438 91.2303C98.3569 91.1025 98.5188 90.915 98.6296 90.6678C98.7433 90.4178 98.8001 90.1124 98.8001 89.7516V83.513ZM101.975 92.2402V83.513H104.924C105.608 83.513 106.168 83.6365 106.603 83.8837C107.04 84.128 107.364 84.459 107.574 84.8766C107.784 85.2942 107.89 85.7601 107.89 86.2743C107.89 86.7885 107.784 87.2559 107.574 87.6763C107.367 88.0968 107.046 88.432 106.611 88.682C106.176 88.9292 105.62 89.0527 104.941 89.0527H102.827V88.1152H104.907C105.375 88.1152 105.752 88.0343 106.036 87.8723C106.32 87.7104 106.526 87.4917 106.654 87.2161C106.784 86.9377 106.85 86.6238 106.85 86.2743C106.85 85.9249 106.784 85.6124 106.654 85.3368C106.526 85.0613 106.319 84.8453 106.032 84.6891C105.745 84.53 105.364 84.4505 104.89 84.4505H103.032V92.2402H101.975ZM115.558 86.2402C115.464 85.9533 115.341 85.6962 115.187 85.4689C115.037 85.2388 114.856 85.0428 114.646 84.8809C114.439 84.7189 114.203 84.5953 113.939 84.5101C113.674 84.4249 113.385 84.3823 113.069 84.3823C112.552 84.3823 112.082 84.5158 111.659 84.7828C111.235 85.0499 110.899 85.4434 110.649 85.9632C110.399 86.4831 110.274 87.1209 110.274 87.8766C110.274 88.6323 110.4 89.2701 110.653 89.79C110.906 90.3098 111.248 90.7033 111.68 90.9703C112.112 91.2374 112.598 91.3709 113.137 91.3709C113.637 91.3709 114.078 91.2644 114.458 91.0513C114.842 90.8354 115.14 90.5314 115.353 90.1394C115.569 89.7445 115.677 89.28 115.677 88.7459L116.001 88.8141H113.376V87.8766H116.7V88.8141C116.7 89.5328 116.547 90.1578 116.24 90.6891C115.936 91.2203 115.515 91.6323 114.978 91.9249C114.444 92.2147 113.831 92.3596 113.137 92.3596C112.365 92.3596 111.686 92.1777 111.1 91.8141C110.518 91.4505 110.064 90.9334 109.737 90.263C109.413 89.5925 109.251 88.7971 109.251 87.8766C109.251 87.1863 109.343 86.5655 109.528 86.0144C109.716 85.4604 109.98 84.9888 110.321 84.5996C110.662 84.2104 111.065 83.9121 111.531 83.7047C111.997 83.4973 112.51 83.3936 113.069 83.3936C113.529 83.3936 113.958 83.4632 114.356 83.6024C114.757 83.7388 115.113 83.9334 115.426 84.1863C115.741 84.4363 116.004 84.736 116.214 85.0854C116.424 85.432 116.569 85.8169 116.649 86.2402H115.558ZM124.408 92.3766C123.817 92.3766 123.298 92.236 122.852 91.9547C122.409 91.6735 122.062 91.28 121.812 90.7743C121.565 90.2686 121.442 89.6777 121.442 89.0016C121.442 88.3198 121.565 87.7246 121.812 87.2161C122.062 86.7076 122.409 86.3127 122.852 86.0314C123.298 85.7502 123.817 85.6096 124.408 85.6096C124.999 85.6096 125.516 85.7502 125.959 86.0314C126.405 86.3127 126.751 86.7076 126.999 87.2161C127.249 87.7246 127.374 88.3198 127.374 89.0016C127.374 89.6777 127.249 90.2686 126.999 90.7743C126.751 91.28 126.405 91.6735 125.959 91.9547C125.516 92.236 124.999 92.3766 124.408 92.3766ZM124.408 91.4732C124.857 91.4732 125.226 91.3581 125.516 91.128C125.805 90.8979 126.02 90.5953 126.159 90.2203C126.298 89.8453 126.368 89.4391 126.368 89.0016C126.368 88.5641 126.298 88.1564 126.159 87.7786C126.02 87.4007 125.805 87.0953 125.516 86.8624C125.226 86.6294 124.857 86.513 124.408 86.513C123.959 86.513 123.589 86.6294 123.3 86.8624C123.01 87.0953 122.795 87.4007 122.656 87.7786C122.517 88.1564 122.447 88.5641 122.447 89.0016C122.447 89.4391 122.517 89.8453 122.656 90.2203C122.795 90.5953 123.01 90.8979 123.3 91.128C123.589 91.3581 123.959 91.4732 124.408 91.4732ZM128.909 92.2402V85.6948H129.88V86.6834H129.949C130.068 86.3596 130.284 86.0968 130.596 85.8951C130.909 85.6934 131.261 85.5925 131.653 85.5925C131.727 85.5925 131.819 85.5939 131.93 85.5968C132.041 85.5996 132.125 85.6039 132.181 85.6096V86.6323C132.147 86.6238 132.069 86.611 131.947 86.5939C131.828 86.574 131.701 86.5641 131.568 86.5641C131.25 86.5641 130.966 86.6309 130.716 86.7644C130.468 86.8951 130.272 87.0769 130.127 87.3098C129.985 87.54 129.914 87.8027 129.914 88.0982V92.2402H128.909ZM142.851 86.2402C142.757 85.9533 142.634 85.6962 142.48 85.4689C142.33 85.2388 142.149 85.0428 141.939 84.8809C141.732 84.7189 141.496 84.5953 141.232 84.5101C140.967 84.4249 140.678 84.3823 140.362 84.3823C139.845 84.3823 139.375 84.5158 138.952 84.7828C138.528 85.0499 138.192 85.4434 137.942 85.9632C137.692 86.4831 137.567 87.1209 137.567 87.8766C137.567 88.6323 137.693 89.2701 137.946 89.79C138.199 90.3098 138.541 90.7033 138.973 90.9703C139.405 91.2374 139.891 91.3709 140.43 91.3709C140.93 91.3709 141.371 91.2644 141.751 91.0513C142.135 90.8354 142.433 90.5314 142.646 90.1394C142.862 89.7445 142.97 89.28 142.97 88.7459L143.294 88.8141H140.669V87.8766H143.993V88.8141C143.993 89.5328 143.839 90.1578 143.533 90.6891C143.229 91.2203 142.808 91.6323 142.271 91.9249C141.737 92.2147 141.124 92.3596 140.43 92.3596C139.658 92.3596 138.979 92.1777 138.393 91.8141C137.811 91.4505 137.357 90.9334 137.03 90.263C136.706 89.5925 136.544 88.7971 136.544 87.8766C136.544 87.1863 136.636 86.5655 136.821 86.0144C137.009 85.4604 137.273 84.9888 137.614 84.5996C137.955 84.2104 138.358 83.9121 138.824 83.7047C139.29 83.4973 139.803 83.3936 140.362 83.3936C140.822 83.3936 141.251 83.4632 141.649 83.6024C142.05 83.7388 142.406 83.9334 142.719 84.1863C143.034 84.4363 143.297 84.736 143.507 85.0854C143.717 85.432 143.862 85.8169 143.942 86.2402H142.851ZM146.86 83.513V92.2402H145.803V83.513H146.86ZM148.979 92.2402V83.513H154.212V84.4505H150.036V87.3993H153.82V88.3368H150.036V92.2402H148.979ZM159.618 88.5584C159.618 87.4846 159.757 86.4973 160.036 85.5968C160.317 84.6934 160.718 83.8624 161.238 83.1039H162.124C161.919 83.3851 161.728 83.7317 161.549 84.1436C161.373 84.5527 161.218 85.003 161.084 85.4945C160.951 85.9831 160.846 86.4888 160.769 87.0115C160.695 87.5343 160.658 88.0499 160.658 88.5584C160.658 89.2346 160.723 89.9206 160.854 90.6167C160.985 91.3127 161.161 91.959 161.382 92.5556C161.604 93.1522 161.851 93.638 162.124 94.013H161.238C160.718 93.2544 160.317 92.4249 160.036 91.5243C159.757 90.6209 159.618 89.6323 159.618 88.5584ZM163.608 92.2402V85.6948H164.58V86.7175H164.665C164.801 86.3681 165.021 86.0968 165.325 85.9036C165.629 85.7076 165.994 85.6096 166.42 85.6096C166.852 85.6096 167.212 85.7076 167.499 85.9036C167.788 86.0968 168.014 86.3681 168.176 86.7175H168.244C168.412 86.3794 168.663 86.111 168.999 85.9121C169.334 85.7104 169.736 85.6096 170.205 85.6096C170.79 85.6096 171.268 85.7928 171.641 86.1593C172.013 86.5229 172.199 87.0897 172.199 87.8596V92.2402H171.193V87.8596C171.193 87.3766 171.061 87.0314 170.797 86.824C170.533 86.6167 170.222 86.513 169.864 86.513C169.403 86.513 169.047 86.6522 168.794 86.9306C168.541 87.2061 168.415 87.5556 168.415 87.9789V92.2402H167.392V87.7573C167.392 87.3851 167.271 87.0854 167.03 86.8581C166.788 86.628 166.477 86.513 166.097 86.513C165.835 86.513 165.591 86.5826 165.364 86.7218C165.139 86.861 164.957 87.0542 164.818 87.3013C164.682 87.5456 164.614 87.8283 164.614 88.1493V92.2402H163.608ZM175.964 92.3936C175.549 92.3936 175.173 92.3155 174.835 92.1593C174.496 92.0002 174.228 91.7715 174.029 91.4732C173.83 91.1721 173.731 90.8084 173.731 90.3823C173.731 90.0073 173.805 89.7033 173.952 89.4703C174.1 89.2346 174.298 89.0499 174.545 88.9164C174.792 88.7828 175.065 88.6834 175.363 88.6181C175.664 88.5499 175.967 88.4959 176.271 88.4561C176.668 88.405 176.991 88.3667 177.238 88.3411C177.488 88.3127 177.67 88.2658 177.783 88.2005C177.9 88.1351 177.958 88.0215 177.958 87.8596V87.8255C177.958 87.405 177.843 87.0783 177.613 86.8453C177.386 86.6124 177.04 86.4959 176.577 86.4959C176.097 86.4959 175.721 86.601 175.448 86.8113C175.175 87.0215 174.984 87.2459 174.873 87.4846L173.918 87.1436C174.089 86.7459 174.316 86.4363 174.6 86.2147C174.887 85.9902 175.2 85.834 175.538 85.7459C175.879 85.655 176.214 85.6096 176.543 85.6096C176.754 85.6096 176.995 85.6351 177.268 85.6863C177.543 85.7346 177.809 85.8354 178.065 85.9888C178.323 86.1422 178.538 86.3738 178.708 86.6834C178.879 86.9931 178.964 87.4078 178.964 87.9277V92.2402H177.958V91.3539H177.907C177.839 91.4959 177.725 91.6479 177.566 91.8098C177.407 91.9718 177.195 92.1096 176.931 92.2232C176.667 92.3368 176.344 92.3936 175.964 92.3936ZM176.117 91.4902C176.515 91.4902 176.85 91.4121 177.123 91.2559C177.398 91.0996 177.606 90.8979 177.745 90.6507C177.887 90.4036 177.958 90.1436 177.958 89.8709V88.9505C177.915 89.0016 177.822 89.0485 177.677 89.0911C177.535 89.1309 177.37 89.1664 177.183 89.1976C176.998 89.226 176.817 89.2516 176.641 89.2743C176.468 89.2942 176.327 89.3113 176.219 89.3255C175.958 89.3596 175.714 89.415 175.487 89.4917C175.262 89.5655 175.08 89.6777 174.941 89.8283C174.805 89.976 174.737 90.1777 174.737 90.4334C174.737 90.7828 174.866 91.0471 175.124 91.226C175.386 91.4022 175.717 91.4902 176.117 91.4902ZM181.549 85.6948L183.118 88.3709L184.686 85.6948H185.845L183.731 88.9675L185.845 92.2402H184.686L183.118 89.7005L181.549 92.2402H180.39L182.47 88.9675L180.39 85.6948H181.549ZM188.013 92.3084C187.803 92.3084 187.622 92.2331 187.472 92.0826C187.321 91.932 187.246 91.7516 187.246 91.5414C187.246 91.3311 187.321 91.1507 187.472 91.0002C187.622 90.8496 187.803 90.7743 188.013 90.7743C188.223 90.7743 188.403 90.8496 188.554 91.0002C188.705 91.1507 188.78 91.3311 188.78 91.5414C188.78 91.6806 188.744 91.8084 188.673 91.9249C188.605 92.0414 188.513 92.1351 188.396 92.2061C188.283 92.2743 188.155 92.3084 188.013 92.3084ZM196.738 92.3596C196.153 92.3596 195.636 92.2559 195.187 92.0485C194.741 91.8382 194.393 91.5499 194.143 91.1834C193.893 90.8141 193.769 90.3936 193.772 89.9221C193.769 89.5527 193.842 89.2118 193.989 88.8993C194.137 88.584 194.339 88.3212 194.594 88.111C194.853 87.8979 195.141 87.763 195.46 87.7061V87.655C195.042 87.5471 194.71 87.3127 194.462 86.9519C194.215 86.5882 194.093 86.1749 194.096 85.7118C194.093 85.2686 194.205 84.8723 194.433 84.5229C194.66 84.1735 194.972 83.8979 195.37 83.6962C195.771 83.4945 196.227 83.3936 196.738 83.3936C197.244 83.3936 197.695 83.4945 198.093 83.6962C198.491 83.8979 198.803 84.1735 199.031 84.5229C199.261 84.8723 199.377 85.2686 199.38 85.7118C199.377 86.1749 199.251 86.5882 199.001 86.9519C198.754 87.3127 198.425 87.5471 198.016 87.655V87.7061C198.332 87.763 198.616 87.8979 198.869 88.111C199.121 88.3212 199.323 88.584 199.474 88.8993C199.624 89.2118 199.701 89.5527 199.704 89.9221C199.701 90.3936 199.573 90.8141 199.32 91.1834C199.07 91.5499 198.722 91.8382 198.276 92.0485C197.833 92.2559 197.32 92.3596 196.738 92.3596ZM196.738 91.4221C197.133 91.4221 197.474 91.3581 197.761 91.2303C198.048 91.1025 198.269 90.9221 198.425 90.6891C198.582 90.4561 198.661 90.1834 198.664 89.8709C198.661 89.5414 198.576 89.2502 198.408 88.9973C198.241 88.7445 198.012 88.5456 197.722 88.4007C197.435 88.2559 197.107 88.1834 196.738 88.1834C196.366 88.1834 196.033 88.2559 195.741 88.4007C195.451 88.5456 195.222 88.7445 195.055 88.9973C194.89 89.2502 194.809 89.5414 194.812 89.8709C194.809 90.1834 194.884 90.4561 195.038 90.6891C195.194 90.9221 195.417 91.1025 195.707 91.2303C195.996 91.3581 196.34 91.4221 196.738 91.4221ZM196.738 87.28C197.05 87.28 197.327 87.2175 197.569 87.0925C197.813 86.9675 198.005 86.7928 198.144 86.5684C198.283 86.3439 198.354 86.0811 198.357 85.78C198.354 85.4846 198.285 85.2274 198.148 85.0087C198.012 84.7871 197.823 84.6167 197.582 84.4973C197.34 84.3752 197.059 84.3141 196.738 84.3141C196.411 84.3141 196.126 84.3752 195.881 84.4973C195.637 84.6167 195.448 84.7871 195.315 85.0087C195.181 85.2274 195.116 85.4846 195.119 85.78C195.116 86.0811 195.183 86.3439 195.319 86.5684C195.458 86.7928 195.65 86.9675 195.894 87.0925C196.138 87.2175 196.42 87.28 196.738 87.28ZM204.184 92.3596C203.542 92.3596 202.995 92.1848 202.543 91.8354C202.091 91.4831 201.746 90.9732 201.507 90.3056C201.269 89.6351 201.15 88.8255 201.15 87.8766C201.15 86.9334 201.269 86.128 201.507 85.4604C201.749 84.79 202.096 84.2786 202.547 83.9263C203.002 83.5712 203.547 83.3936 204.184 83.3936C204.82 83.3936 205.364 83.5712 205.816 83.9263C206.27 84.2786 206.617 84.79 206.855 85.4604C207.097 86.128 207.218 86.9334 207.218 87.8766C207.218 88.8255 207.098 89.6351 206.86 90.3056C206.621 90.9732 206.276 91.4831 205.824 91.8354C205.373 92.1848 204.826 92.3596 204.184 92.3596ZM204.184 91.4221C204.82 91.4221 205.314 91.1152 205.667 90.5016C206.019 89.888 206.195 89.013 206.195 87.8766C206.195 87.1209 206.114 86.4775 205.952 85.9462C205.793 85.4149 205.563 85.0101 205.262 84.7317C204.963 84.4533 204.604 84.3141 204.184 84.3141C203.553 84.3141 203.06 84.6252 202.705 85.2473C202.35 85.8667 202.172 86.7431 202.172 87.8766C202.172 88.6323 202.252 89.2743 202.411 89.8027C202.57 90.3311 202.799 90.7331 203.097 91.0087C203.398 91.2843 203.76 91.4221 204.184 91.4221ZM211.684 92.3596C211.042 92.3596 210.495 92.1848 210.043 91.8354C209.591 91.4831 209.246 90.9732 209.007 90.3056C208.769 89.6351 208.65 88.8255 208.65 87.8766C208.65 86.9334 208.769 86.128 209.007 85.4604C209.249 84.79 209.596 84.2786 210.047 83.9263C210.502 83.5712 211.047 83.3936 211.684 83.3936C212.32 83.3936 212.864 83.5712 213.316 83.9263C213.77 84.2786 214.117 84.79 214.355 85.4604C214.597 86.128 214.718 86.9334 214.718 87.8766C214.718 88.8255 214.598 89.6351 214.36 90.3056C214.121 90.9732 213.776 91.4831 213.324 91.8354C212.873 92.1848 212.326 92.3596 211.684 92.3596ZM211.684 91.4221C212.32 91.4221 212.814 91.1152 213.167 90.5016C213.519 89.888 213.695 89.013 213.695 87.8766C213.695 87.1209 213.614 86.4775 213.452 85.9462C213.293 85.4149 213.063 85.0101 212.762 84.7317C212.463 84.4533 212.104 84.3141 211.684 84.3141C211.053 84.3141 210.56 84.6252 210.205 85.2473C209.85 85.8667 209.672 86.7431 209.672 87.8766C209.672 88.6323 209.752 89.2743 209.911 89.8027C210.07 90.3311 210.299 90.7331 210.597 91.0087C210.898 91.2843 211.26 91.4221 211.684 91.4221ZM221.468 90.6721L216.661 85.8652L217.309 85.2175L222.115 90.0243L221.468 90.6721ZM217.309 90.6721L216.661 90.0243L221.468 85.2175L222.115 85.8652L217.309 90.6721ZM224.043 90.4505V89.5811L227.878 83.513H228.509V84.8596H228.082L225.185 89.4448V89.513H230.349V90.4505H224.043ZM228.151 92.2402V90.1863V89.7814V83.513H229.156V92.2402H228.151ZM234.793 92.3596C234.151 92.3596 233.604 92.1848 233.152 91.8354C232.701 91.4831 232.355 90.9732 232.117 90.3056C231.878 89.6351 231.759 88.8255 231.759 87.8766C231.759 86.9334 231.878 86.128 232.117 85.4604C232.358 84.79 232.705 84.2786 233.157 83.9263C233.611 83.5712 234.157 83.3936 234.793 83.3936C235.429 83.3936 235.973 83.5712 236.425 83.9263C236.88 84.2786 237.226 84.79 237.465 85.4604C237.706 86.128 237.827 86.9334 237.827 87.8766C237.827 88.8255 237.708 89.6351 237.469 90.3056C237.23 90.9732 236.885 91.4831 236.434 91.8354C235.982 92.1848 235.435 92.3596 234.793 92.3596ZM234.793 91.4221C235.429 91.4221 235.924 91.1152 236.276 90.5016C236.628 89.888 236.804 89.013 236.804 87.8766C236.804 87.1209 236.723 86.4775 236.561 85.9462C236.402 85.4149 236.172 85.0101 235.871 84.7317C235.573 84.4533 235.213 84.3141 234.793 84.3141C234.162 84.3141 233.669 84.6252 233.314 85.2473C232.959 85.8667 232.782 86.7431 232.782 87.8766C232.782 88.6323 232.861 89.2743 233.02 89.8027C233.179 90.3311 233.408 90.7331 233.706 91.0087C234.007 91.2843 234.37 91.4221 234.793 91.4221ZM242.293 92.3596C241.651 92.3596 241.104 92.1848 240.652 91.8354C240.201 91.4831 239.855 90.9732 239.617 90.3056C239.378 89.6351 239.259 88.8255 239.259 87.8766C239.259 86.9334 239.378 86.128 239.617 85.4604C239.858 84.79 240.205 84.2786 240.657 83.9263C241.111 83.5712 241.657 83.3936 242.293 83.3936C242.929 83.3936 243.473 83.5712 243.925 83.9263C244.38 84.2786 244.726 84.79 244.965 85.4604C245.206 86.128 245.327 86.9334 245.327 87.8766C245.327 88.8255 245.208 89.6351 244.969 90.3056C244.73 90.9732 244.385 91.4831 243.934 91.8354C243.482 92.1848 242.935 92.3596 242.293 92.3596ZM242.293 91.4221C242.929 91.4221 243.424 91.1152 243.776 90.5016C244.128 89.888 244.304 89.013 244.304 87.8766C244.304 87.1209 244.223 86.4775 244.061 85.9462C243.902 85.4149 243.672 85.0101 243.371 84.7317C243.073 84.4533 242.713 84.3141 242.293 84.3141C241.662 84.3141 241.169 84.6252 240.814 85.2473C240.459 85.8667 240.282 86.7431 240.282 87.8766C240.282 88.6323 240.361 89.2743 240.52 89.8027C240.679 90.3311 240.908 90.7331 241.206 91.0087C241.507 91.2843 241.87 91.4221 242.293 91.4221ZM246.963 94.6948V85.6948H247.935V86.7346H248.054C248.128 86.6209 248.23 86.476 248.361 86.2999C248.495 86.1209 248.685 85.9618 248.932 85.8226C249.182 85.6806 249.52 85.6096 249.946 85.6096C250.498 85.6096 250.983 85.7473 251.404 86.0229C251.824 86.2985 252.152 86.6891 252.388 87.1948C252.624 87.7005 252.742 88.2971 252.742 88.9846C252.742 89.6777 252.624 90.2786 252.388 90.7871C252.152 91.2928 251.826 91.6848 251.408 91.9632C250.99 92.2388 250.509 92.3766 249.963 92.3766C249.543 92.3766 249.206 92.307 248.953 92.1678C248.701 92.0257 248.506 91.8652 248.37 91.6863C248.233 91.5044 248.128 91.3539 248.054 91.2346H247.969V94.6948H246.963ZM247.952 88.9675C247.952 89.4618 248.025 89.8979 248.169 90.2757C248.314 90.6507 248.526 90.9448 248.804 91.1578C249.083 91.3681 249.424 91.4732 249.827 91.4732C250.248 91.4732 250.598 91.3624 250.88 91.1408C251.164 90.9164 251.377 90.6152 251.519 90.2374C251.664 89.8567 251.736 89.4334 251.736 88.9675C251.736 88.5073 251.665 88.0925 251.523 87.7232C251.384 87.351 251.172 87.057 250.888 86.8411C250.607 86.6223 250.253 86.513 249.827 86.513C249.418 86.513 249.074 86.6167 248.796 86.824C248.517 87.0286 248.307 87.3155 248.165 87.6848C248.023 88.0513 247.952 88.4789 247.952 88.9675ZM254.756 85.6948L256.325 88.3709L257.893 85.6948H259.052L256.938 88.9675L259.052 92.2402H257.893L256.325 89.7005L254.756 92.2402H253.597L255.677 88.9675L253.597 85.6948H254.756ZM262.635 88.5584C262.635 89.6323 262.494 90.6209 262.213 91.5243C261.934 92.4249 261.535 93.2544 261.015 94.013H260.129C260.333 93.7317 260.524 93.3851 260.7 92.9732C260.879 92.5641 261.035 92.1152 261.169 91.6266C261.302 91.1351 261.406 90.628 261.48 90.1053C261.556 89.5797 261.595 89.0641 261.595 88.5584C261.595 87.8823 261.529 87.1962 261.399 86.5002C261.268 85.8042 261.092 85.1578 260.87 84.5613C260.649 83.9647 260.402 83.4789 260.129 83.1039H261.015C261.535 83.8624 261.934 84.6934 262.213 85.5968C262.494 86.4973 262.635 87.4846 262.635 88.5584Z" fill="#667085"/>
<defs>
<clipPath id="clip0_235_2600">
<rect width="20" height="20" fill="white" transform="translate(137.5 13.2402)"/>
</clipPath>
</defs>
</svg>
