<svg width="32" height="33" viewBox="0 0 32 33" fill="none" xmlns="http://www.w3.org/2000/svg">
<rect y="0.484375" width="32" height="32" rx="16" fill="#E7F0F6"/>
<g clip-path="url(#clip0_5_43549)">
<path d="M20.25 14.7969V19.1719C20.25 19.6894 19.83 20.1094 19.3125 20.1094C18.795 20.1094 18.375 19.6894 18.375 19.1719V14.7969C18.375 14.2794 18.795 13.8594 19.3125 13.8594C19.83 13.8594 20.25 14.2794 20.25 14.7969ZM16.1875 9.48438C15.67 9.48438 15.25 9.90437 15.25 10.4219V23.5469C15.25 24.0644 15.67 24.4844 16.1875 24.4844C16.705 24.4844 17.125 24.0644 17.125 23.5469V10.4219C17.125 9.90437 16.705 9.48438 16.1875 9.48438ZM22.4375 11.9844C21.92 11.9844 21.5 12.4044 21.5 12.9219V21.0469C21.5 21.5644 21.92 21.9844 22.4375 21.9844C22.955 21.9844 23.375 21.5644 23.375 21.0469V12.9219C23.375 12.4044 22.955 11.9844 22.4375 11.9844ZM13.0625 12.6094C12.545 12.6094 12.125 13.0294 12.125 13.5469V20.4219C12.125 20.9394 12.545 21.3594 13.0625 21.3594C13.58 21.3594 14 20.9394 14 20.4219V13.5469C14 13.0294 13.58 12.6094 13.0625 12.6094ZM9.9375 15.1094C9.42 15.1094 9 15.5294 9 16.0469V17.9219C9 18.4394 9.42 18.8594 9.9375 18.8594C10.455 18.8594 10.875 18.4394 10.875 17.9219V16.0469C10.875 15.5294 10.455 15.1094 9.9375 15.1094Z" fill="#0E6DA1"/>
</g>
<defs>
<clipPath id="clip0_5_43549">
<rect width="15" height="15" fill="white" transform="translate(9 9.48438)"/>
</clipPath>
</defs>
</svg>
