<svg width="21" height="20" viewBox="0 0 21 20" fill="none" xmlns="http://www.w3.org/2000/svg">
<path d="M3 4.99996H4.66667M4.66667 4.99996H18M4.66667 4.99996V16.6666C4.66667 17.1087 4.84226 17.5326 5.15482 17.8451C5.46738 18.1577 5.89131 18.3333 6.33333 18.3333H14.6667C15.1087 18.3333 15.5326 18.1577 15.8452 17.8451C16.1577 17.5326 16.3333 17.1087 16.3333 16.6666V4.99996H4.66667ZM7.16667 4.99996V3.33329C7.16667 2.89127 7.34226 2.46734 7.65482 2.15478C7.96738 1.84222 8.39131 1.66663 8.83333 1.66663H12.1667C12.6087 1.66663 13.0326 1.84222 13.3452 2.15478C13.6577 2.46734 13.8333 2.89127 13.8333 3.33329V4.99996M8.83333 9.16663V14.1666M12.1667 9.16663V14.1666" stroke="white" stroke-width="1.66667" stroke-linecap="round" stroke-linejoin="round"/>
</svg>
