<svg width="40" height="40" viewBox="0 0 40 40" fill="none" xmlns="http://www.w3.org/2000/svg">
<rect width="40" height="40" rx="20" fill="#E7F0F6"/>
<path d="M25.8332 18.3333V19.9999C25.8332 21.547 25.2186 23.0307 24.1246 24.1247C23.0307 25.2187 21.5469 25.8333 19.9998 25.8333M19.9998 25.8333C18.4527 25.8333 16.969 25.2187 15.875 24.1247C14.7811 23.0307 14.1665 21.547 14.1665 19.9999V18.3333M19.9998 25.8333V29.1666M16.6665 29.1666H23.3332M19.9998 10.8333C19.3368 10.8333 18.7009 11.0966 18.2321 11.5655C17.7632 12.0343 17.4998 12.6702 17.4998 13.3333V19.9999C17.4998 20.663 17.7632 21.2988 18.2321 21.7677C18.7009 22.2365 19.3368 22.4999 19.9998 22.4999C20.6629 22.4999 21.2988 22.2365 21.7676 21.7677C22.2364 21.2988 22.4998 20.663 22.4998 19.9999V13.3333C22.4998 12.6702 22.2364 12.0343 21.7676 11.5655C21.2988 11.0966 20.6629 10.8333 19.9998 10.8333Z" stroke="#0E6DA1" stroke-width="1.5" stroke-linecap="round" stroke-linejoin="round"/>
</svg>
