<svg width="25" height="25" viewBox="0 0 25 25" fill="none" xmlns="http://www.w3.org/2000/svg">
<g clip-path="url(#clip0_267_7728)">
<path d="M17.0366 21.9001V19.9001C17.0366 18.8393 16.6152 17.8219 15.865 17.0717C15.1149 16.3216 14.0975 15.9001 13.0366 15.9001H5.03662C3.97576 15.9001 2.95834 16.3216 2.20819 17.0717C1.45805 17.8219 1.03662 18.8393 1.03662 19.9001V21.9001M23.0366 21.9001V19.9001C23.036 19.0139 22.741 18.1529 22.198 17.4525C21.655 16.752 20.8948 16.2517 20.0366 16.0301M16.0366 4.03015C16.897 4.25045 17.6597 4.75085 18.2043 5.45246C18.7489 6.15407 19.0445 7.01698 19.0445 7.90515C19.0445 8.79332 18.7489 9.65623 18.2043 10.3578C17.6597 11.0594 16.897 11.5598 16.0366 11.7801M13.0366 7.90015C13.0366 10.1093 11.2458 11.9001 9.03662 11.9001C6.82748 11.9001 5.03662 10.1093 5.03662 7.90015C5.03662 5.69101 6.82748 3.90015 9.03662 3.90015C11.2458 3.90015 13.0366 5.69101 13.0366 7.90015Z" stroke="#667085" stroke-width="2" stroke-linecap="round" stroke-linejoin="round"/>
</g>
<defs>
<clipPath id="clip0_267_7728">
<rect width="24" height="24" fill="white" transform="translate(0.0366211 0.900146)"/>
</clipPath>
</defs>
</svg>
