<svg width="25" height="25" viewBox="0 0 25 25" fill="none" xmlns="http://www.w3.org/2000/svg">
<path fill-rule="evenodd" clip-rule="evenodd" d="M4.92765 8.32421C4.52954 6.59977 5.60473 4.8791 7.32917 4.48098L15.3024 2.64021C17.0268 2.2421 18.7475 3.31729 19.1456 5.04173C19.5438 6.76617 18.4686 8.48684 16.7441 8.88496L10.2092 10.3937H16.1281C17.8979 10.3937 19.3326 11.8284 19.3326 13.5982C19.3326 15.3679 17.8979 16.8027 16.1281 16.8027H7.94511C6.17532 16.8027 4.74062 15.3679 4.74062 13.5982C4.74062 12.2077 5.62615 11.0241 6.864 10.5806C5.92175 10.2043 5.17318 9.38772 4.92765 8.32421ZM7.69708 6.0746C6.85278 6.26952 6.32634 7.11199 6.52127 7.95629C6.71619 8.8006 7.55866 9.32703 8.40296 9.13211L16.3762 7.29134C17.2205 7.09642 17.7469 6.25395 17.552 5.40964C17.3571 4.56534 16.5146 4.03891 15.6703 4.23383L7.69708 6.0746ZM7.94512 12.0292C7.0786 12.0292 6.37615 12.7316 6.37615 13.5982C6.37615 14.4647 7.0786 15.1671 7.94511 15.1671H16.1281C16.9946 15.1671 17.6971 14.4647 17.6971 13.5982C17.6971 12.7316 16.9946 12.0292 16.1281 12.0292H7.94512ZM7.70719 17.3089C5.93739 17.3089 4.50269 18.7436 4.50269 20.5134C4.50269 22.2832 5.93739 23.7179 7.70718 23.7179H15.8902C17.66 23.7179 19.0947 22.2832 19.0947 20.5134C19.0947 18.7436 17.66 17.3089 15.8902 17.3089H7.70719ZM6.13822 20.5134C6.13822 19.6469 6.84067 18.9445 7.70719 18.9445H15.8902C16.7567 18.9445 17.4591 19.6469 17.4591 20.5134C17.4591 21.38 16.7567 22.0824 15.8902 22.0824H7.70718C6.84067 22.0824 6.13822 21.38 6.13822 20.5134Z" fill="#667085"/>
</svg>
